Coordinates
version=1
nRows=32
nColumns=38
inDegrees=no

Units are S.I. units (second, meters, Newtons, ...)
If the header above contains a line with 'inDegrees', this indicates whether rotational values are in degrees (yes) or radians (no).

endheader
time	pelvis_tilt	pelvis_list	pelvis_rotation	pelvis_tx	pelvis_ty	pelvis_tz	hip_flexion_r	hip_adduction_r	hip_rotation_r	knee_angle_r	ankle_angle_r	subtalar_angle_r	mtp_angle_r	hip_flexion_l	hip_adduction_l	hip_rotation_l	knee_angle_l	ankle_angle_l	subtalar_angle_l	mtp_angle_l	lumbar_extension	lumbar_bending	lumbar_rotation	arm_flex_r	arm_add_r	arm_rot_r	elbow_flex_r	pro_sup_r	wrist_flex_r	wrist_dev_r	arm_flex_l	arm_add_l	arm_rot_l	elbow_flex_l	pro_sup_l	wrist_flex_l	wrist_dev_l
0.33	0.052505	-0.122233	-0.00743813	0.940104	1.05414	-0.34828	0.362161	0.112054	-0.604498	-0.170398	-0.36836	0.0572385	-0.00103051	-0.431908	-0.208751	-0.462944	-1.09847	-0.20636	0.0383731	-0.00844347	-0.209719	0.184943	-0.123853	-0.860663	-0.214725	-0.455792	1.86856	1.57021	0.0174779	0.0264633	-0.250186	-0.279502	0.212356	2.3661	1.65002	0.0183905	0.00885961
0.34	0.0595002	-0.130613	3.60306e-05	0.938489	1.04852	-0.347412	0.364249	0.121778	-0.579977	-0.266465	-0.29074	0.0572385	-0.00103051	-0.391466	-0.247879	-0.437573	-1.23644	-0.153437	0.0383731	-0.00844347	-0.221912	0.192967	-0.126314	-0.818487	-0.216863	-0.440944	1.85392	1.56835	0.0174779	0.0264633	-0.278066	-0.292158	0.18027	2.34096	1.64817	0.0183905	0.00885961
0.35	0.0645523	-0.137439	0.00556945	0.936466	1.042	-0.346717	0.364095	0.130897	-0.556472	-0.360216	-0.205718	0.0572385	-0.00103051	-0.342782	-0.279302	-0.408167	-1.36575	-0.105692	0.0383731	-0.00844347	-0.233823	0.198621	-0.12462	-0.773498	-0.219849	-0.424075	1.84107	1.56523	0.0174779	0.0264633	-0.30512	-0.303591	0.148092	2.31722	1.65248	0.0183905	0.00885961
0.36	0.0676767	-0.142684	0.00917536	0.933994	1.03481	-0.346196	0.361489	0.139347	-0.534091	-0.451143	-0.114031	0.0572385	-0.00103051	-0.285941	-0.302979	-0.374821	-1.48625	-0.0631088	0.0383731	-0.00844347	-0.245444	0.201903	-0.11872	-0.725851	-0.223661	-0.405269	1.83015	1.56091	0.0174779	0.0264633	-0.331294	-0.31379	0.116003	2.29491	1.66271	0.0183905	0.00885961
0.37	0.0689479	-0.146271	0.0109066	0.93103	1.02734	-0.345873	0.355798	0.146938	-0.513002	-0.537759	-0.0177866	0.0572385	-0.00103051	-0.221268	-0.318847	-0.337891	-1.59742	-0.0255668	0.0383731	-0.00844347	-0.256754	0.202828	-0.108464	-0.676062	-0.228213	-0.384815	1.8217	1.55554	0.0174779	0.0264633	-0.356424	-0.322738	0.0845655	2.27407	1.67805	0.0183905	0.00885961
0.38	0.068557	-0.148066	0.0108996	0.927634	1.02011	-0.345778	0.345841	0.153321	-0.493282	-0.617468	0.0794408	0.0572385	-0.00103051	-0.149493	-0.326921	-0.298168	-1.69834	0.0072648	0.0383731	-0.00844347	-0.267694	0.201427	-0.0935969	-0.625171	-0.233319	-0.363276	1.81668	1.54947	0.0174779	0.0264633	-0.380227	-0.330427	0.0548229	2.25486	1.69687	0.0183905	0.00885961
0.39	0.0667986	-0.147853	0.00942808	0.923935	1.0136	-0.345926	0.329968	0.157971	-0.474834	-0.686817	0.173043	0.0572385	-0.00103051	-0.0718537	-0.327403	-0.256956	-1.78765	0.0359626	0.0383731	-0.00844347	-0.27813	0.1977	-0.0739088	-0.574739	-0.238712	-0.341424	1.81653	1.5433	0.0174779	0.0264633	-0.402406	-0.336871	0.0281654	2.23755	1.71674	0.0183905	0.00885961
0.4	0.064012	-0.145276	0.00693379	0.920087	1.00818	-0.346315	0.306311	0.160176	-0.457467	-0.741995	0.25798	0.0572385	-0.00103051	0.00996584	-0.32074	-0.21601	-1.86373	0.0612501	0.0383731	-0.00844347	-0.287724	0.191488	-0.0495881	-0.526573	-0.24417	-0.319891	1.82282	1.53792	0.0174779	0.0264633	-0.422947	-0.342078	0.00588619	2.2226	1.73468	0.0183905	0.00885961
0.41	0.0605048	-0.139898	0.00398486	0.91631	1.00404	-0.346921	0.273165	0.159139	-0.441088	-0.779439	0.329255	0.0572385	-0.00103051	0.0939721	-0.30768	-0.177388	-1.92496	0.0838419	0.0383731	-0.00844347	-0.295902	0.182478	-0.0213277	-0.482477	-0.249555	-0.299004	1.83695	1.53441	0.0174779	0.0264633	-0.442232	-0.346034	-0.0111609	2.2107	1.74783	0.0183905	0.00885961
0.42	0.0564889	-0.131279	0.00116332	0.91289	1.00128	-0.347706	0.229409	0.154149	-0.425879	-0.796409	0.382174	0.0572385	-0.00103051	0.178085	-0.289271	-0.143226	-1.96997	0.104303	0.0383731	-0.00844347	-0.301862	0.170297	0.00974612	-0.443996	-0.254799	-0.278695	1.85992	1.53398	0.0174779	0.0264633	-0.461039	-0.348695	-0.022813	2.2026	1.75412	0.0183905	0.00885961
0.43	0.0520252	-0.11912	-0.0010654	0.910133	0.999909	-0.348617	0.174849	0.144756	-0.412352	-0.791418	0.412524	0.0572385	-0.00103051	0.260365	-0.266793	-0.11549	-1.99787	0.12299	0.0383731	-0.00844347	-0.304666	0.154625	0.0422354	-0.412164	-0.259888	-0.258495	1.89197	1.53777	0.0174779	0.0264633	-0.480449	-0.349944	-0.0297201	2.19905	1.75275	0.0183905	0.00885961
0.44	0.0469815	-0.10337	-0.00242998	0.908315	0.999868	-0.349591	0.110399	0.130902	-0.401289	-0.764529	0.416837	0.0572385	-0.00103051	0.33921	-0.241614	-0.0956984	-2.00836	0.140078	0.0383731	-0.00844347	-0.303379	0.135301	0.0746424	-0.387306	-0.264833	-0.237585	1.93253	1.54665	0.0174779	0.0264633	-0.501688	-0.349559	-0.0333056	2.20058	1.74441	0.0183905	0.00885961
0.45	0.0410552	-0.0842734	-0.00284693	0.907631	1.001	-0.35057	0.0380921	0.112958	-0.393615	-0.717517	0.392849	0.0572385	-0.00103051	0.41346	-0.215004	-0.0846786	-2.0017	0.155631	0.0383731	-0.00844347	-0.29724	0.112409	0.105536	-0.369011	-0.269641	-0.214956	1.98018	1.56098	0.0174779	0.0264633	-0.525896	-0.347216	-0.0355283	2.20735	1.7311	0.0183905	0.00885961
0.46	0.0338754	-0.0623956	-0.00234288	0.908146	1.00309	-0.351518	-0.0390972	0.0917069	-0.390228	-0.653925	0.340068	0.0572385	-0.00103051	0.482386	-0.187978	-0.0823885	-1.97862	0.169647	0.0383731	-0.00844347	-0.285877	0.086357	0.133762	-0.356303	-0.274258	-0.189728	2.03294	1.58047	0.0174779	0.0264633	-0.553831	-0.342574	-0.038424	2.21911	1.71558	0.0183905	0.00885961
0.47	0.0251699	-0.0386322	-0.000955274	0.909772	1.00587	-0.352441	-0.117589	0.068296	-0.391793	-0.578987	0.260308	0.0572385	-0.00103051	0.545543	-0.161221	-0.0878614	-1.94014	0.182068	0.0383731	-0.00844347	-0.269552	0.0579755	0.158783	-0.348088	-0.278486	-0.161678	2.08872	1.60413	0.0174779	0.0264633	-0.585456	-0.335467	-0.043441	2.23508	1.70059	0.0183905	0.00885961
0.48	0.0149108	-0.0141548	0.00134919	0.912274	1.00907	-0.353374	-0.193605	0.0441378	-0.39851	-0.499359	0.158007	0.0572385	-0.00103051	0.602588	-0.135072	-0.0993167	-1.8873	0.192722	0.0383731	-0.00844347	-0.249221	0.0284844	0.180615	-0.343321	-0.282032	-0.131324	2.14554	1.63041	0.0174779	0.0264633	-0.619896	-0.325937	-0.0511877	2.25407	1.68817	0.0183905	0.00885961
0.49	0.00337667	0.00970845	0.00471249	0.915311	1.01246	-0.354361	-0.263613	0.0207309	-0.409919	-0.422581	0.0401284	0.0572385	-0.00103051	0.653099	-0.109566	-0.114447	-1.82104	0.201241	0.0383731	-0.00844347	-0.226391	-0.000674413	0.199376	-0.340846	-0.284668	-0.099512	2.20142	1.65753	0.0174779	0.0264633	-0.655791	-0.314094	-0.0616682	2.27464	1.67934	0.0183905	0.00885961
0.5	-0.00885625	0.0316338	0.00935073	0.918507	1.01582	-0.355432	-0.324759	-0.000534386	-0.424848	-0.356344	-0.0844176	0.0572385	-0.00103051	0.696434	-0.0845882	-0.130836	-1.742	0.207017	0.0383731	-0.00844347	-0.202926	-0.0280174	0.215052	-0.339413	-0.286324	-0.0671726	2.25439	1.68374	0.0174779	0.0264633	-0.69156	-0.300051	-0.0744853	2.29526	1.67418	0.0183905	0.00885961
0.51	-0.02097	0.0504921	0.015465	0.921508	1.019	-0.356599	-0.375196	-0.0186115	-0.441597	-0.307635	-0.20584	0.0572385	-0.00103051	0.731673	-0.0600476	-0.146429	-1.65062	0.209228	0.0383731	-0.00844347	-0.180815	-0.0522316	0.227466	-0.337818	-0.287084	-0.0352124	2.30248	1.70758	0.0174779	0.0264633	-0.725619	-0.283937	-0.0890251	2.31446	1.67203	0.0183905	0.00885961
0.52	-0.0320051	0.0655335	0.0231345	0.924048	1.02188	-0.35785	-0.414222	-0.0330447	-0.458387	-0.281999	-0.314817	0.0572385	-0.00103051	0.757682	-0.0360113	-0.159947	-1.5473	0.206929	0.0383731	-0.00844347	-0.161937	-0.0723952	0.236387	-0.335103	-0.28712	-0.00450745	2.34381	1.72797	0.0174779	0.0264633	-0.756514	-0.265973	-0.104602	2.33099	1.67187	0.0183905	0.00885961
0.53	-0.0409862	0.0765103	0.0322343	0.925978	1.02441	-0.359162	-0.442218	-0.0441422	-0.473934	-0.283037	-0.403796	0.0572385	-0.00103051	0.773295	-0.0127432	-0.171083	-1.43276	0.199206	0.0383731	-0.00844347	-0.147886	-0.0881268	0.24176	-0.330816	-0.286579	0.023996	2.37679	1.74433	0.0174779	0.0264633	-0.782962	-0.246583	-0.120512	2.34389	1.67262	0.0183905	0.00885961
0.54	-0.0470301	0.0836804	0.0424202	0.927245	1.02655	-0.360502	-0.460458	-0.0529742	-0.487936	-0.312163	-0.467931	0.0572385	-0.00103051	0.777575	0.00934932	-0.180394	-1.30843	0.185405	0.0383731	-0.00844347	-0.139902	-0.0995847	0.244003	-0.325293	-0.285454	0.0490627	2.4004	1.75663	0.0174779	0.0264633	-0.803782	-0.22657	-0.135938	2.35257	1.67333	0.0183905	0.00885961
0.55	-0.0495226	0.0877885	0.0532049	0.927894	1.02825	-0.361839	-0.470758	-0.0612547	-0.501252	-0.368631	-0.50542	0.0572385	-0.00103051	0.770174	0.0299102	-0.188972	-1.17691	0.165349	0.0383731	-0.00844347	-0.138637	-0.107473	0.243695	-0.319322	-0.283658	0.0695705	2.41404	1.76523	0.0174779	0.0264633	-0.81815	-0.206908	-0.150237	2.35679	1.67333	0.0183905	0.00885961
0.56	-0.0482435	0.0899175	0.0640792	0.928035	1.02942	-0.363152	-0.475067	-0.0710143	-0.515556	-0.449829	-0.517182	0.0572385	-0.00103051	0.751641	0.0487956	-0.197935	-1.04215	0.139568	0.0383731	-0.00844347	-0.144057	-0.112885	0.241337	-0.31386	-0.281102	0.0847802	2.41746	1.77074	0.0174779	0.0264633	-0.825721	-0.188603	-0.163051	2.35668	1.6723	0.0183905	0.00885961
0.57	-0.0434153	0.0912583	0.0746268	0.927802	1.02993	-0.364425	-0.475073	-0.0841374	-0.532519	-0.55181	-0.506087	0.0572385	-0.00103051	0.723581	0.0661341	-0.207932	-0.909558	0.109477	0.0383731	-0.00844347	-0.155451	-0.117049	0.237211	-0.309804	-0.277764	0.0944661	2.41076	1.77393	0.0174779	0.0264633	-0.826604	-0.172594	-0.174276	2.35256	1.67022	0.0183905	0.00885961
0.58	-0.0356759	0.0928755	0.0845876	0.927302	1.02966	-0.365633	-0.471836	-0.101898	-0.552872	-0.669952	-0.476036	0.0572385	-0.00103051	0.688596	0.0822642	-0.218834	-0.785693	0.0774619	0.0383731	-0.00844347	-0.171576	-0.121068	0.231334	-0.307825	-0.273732	0.0989163	2.39435	1.77563	0.0174779	0.0264633	-0.82124	-0.159708	-0.18394	2.3449	1.66729	0.0183905	0.00885961
0.59	-0.0259642	0.0955136	0.0938617	0.926598	1.02851	-0.366761	-0.465559	-0.124634	-0.575836	-0.799594	-0.431241	0.0572385	-0.00103051	0.649983	0.0975874	-0.229699	-0.677654	0.0468138	0.0383731	-0.00844347	-0.190885	-0.125722	0.223499	-0.308253	-0.269203	0.0988347	2.36889	1.77673	0.0174779	0.0264633	-0.810223	-0.150616	-0.19208	2.33418	1.66374	0.0183905	0.00885961
0.6	-0.0154096	0.0995047	0.102478	0.925711	1.0264	-0.367789	-0.455555	-0.151703	-0.59919	-0.936499	-0.375833	0.0572385	-0.00103051	0.611214	0.112427	-0.239022	-0.592172	0.0215319	0.0383731	-0.00844347	-0.211808	-0.131391	0.213341	-0.311013	-0.264441	0.095186	2.33518	1.778	0.0174779	0.0264633	-0.794129	-0.145794	-0.198643	2.32076	1.65985	0.0183905	0.00885961
0.61	-0.00508581	0.104891	0.110546	0.92463	1.02331	-0.368723	-0.440387	-0.181705	-0.619931	-1.07709	-0.313724	0.0572385	-0.00103051	0.575371	0.126937	-0.245166	-0.534573	0.00594374	0.0383731	-0.00844347	-0.232946	-0.138067	0.200405	-0.315637	-0.2597	0.0890202	2.29401	1.77999	0.0174779	0.0264633	-0.773392	-0.145487	-0.203474	2.30487	1.6558	0.0183905	0.00885961
0.62	0.00410871	0.111445	0.118202	0.923321	1.0192	-0.369567	-0.418169	-0.212857	-0.635077	-1.21843	-0.248555	0.0572385	-0.00103051	0.544636	0.141086	-0.246821	-0.507828	0.00414619	0.0383731	-0.00844347	-0.253209	-0.145464	0.184241	-0.321354	-0.25515	0.0812806	2.24611	1.78297	0.0174779	0.0264633	-0.748246	-0.149696	-0.206331	2.28661	1.65172	0.0183905	0.00885961
0.63	0.0115298	0.118736	0.125549	0.92173	1.0141	-0.370324	-0.386944	-0.243317	-0.642305	-1.35807	-0.183579	0.0572385	-0.00103051	0.519937	0.154638	-0.243334	-0.51192	0.0192802	0.0383731	-0.00844347	-0.271884	-0.153084	0.164588	-0.327312	-0.250806	0.0725908	2.19211	1.787	0.0174779	0.0264633	-0.718691	-0.158214	-0.206899	2.26601	1.64771	0.0183905	0.00885961
0.64	0.0168427	0.126158	0.132593	0.919771	1.00817	-0.370965	-0.345044	-0.271378	-0.640276	-1.49377	-0.121488	0.0572385	-0.00103051	0.500831	0.167117	-0.234803	-0.543645	0.0527761	0.0383731	-0.00844347	-0.288653	-0.160249	0.141664	-0.332906	-0.246487	0.0630132	2.13272	1.79202	0.0174779	0.0264633	-0.68448	-0.170733	-0.204734	2.24315	1.64388	0.0183905	0.00885961
